<svg width="92" height="91" viewBox="0 0 92 91" fill="none" xmlns="http://www.w3.org/2000/svg">
<path d="M90.8876 9.12502C91.4715 9.71078 91.7994 10.5042 91.7994 11.3313C91.7994 12.1584 91.4715 12.9517 90.8876 13.5375L84.3688 20.0625L71.8688 7.56252L78.3876 1.03752C78.9736 0.451669 79.7683 0.122559 80.5969 0.122559C81.4256 0.122559 82.2203 0.451669 82.8063 1.03752L90.8876 9.11877V9.12502ZM79.9501 24.475L67.4501 11.975L24.8688 54.5625C24.5248 54.9064 24.2659 55.3259 24.1126 55.7875L19.0813 70.875C18.9901 71.1501 18.9771 71.4451 19.0439 71.7271C19.1107 72.0091 19.2546 72.2669 19.4595 72.4718C19.6644 72.6768 19.9223 72.8206 20.2043 72.8874C20.4862 72.9542 20.7813 72.9413 21.0563 72.85L36.1438 67.8188C36.6048 67.6673 37.0242 67.4105 37.3688 67.0688L79.9501 24.4813V24.475Z" fill="#2A2A2A"/>
<path fill-rule="evenodd" clip-rule="evenodd" d="M0.25 81.375C0.25 83.8614 1.23772 86.246 2.99587 88.0041C4.75403 89.7623 7.1386 90.75 9.625 90.75H78.375C80.8614 90.75 83.246 89.7623 85.0041 88.0041C86.7623 86.246 87.75 83.8614 87.75 81.375V43.875C87.75 43.0462 87.4208 42.2513 86.8347 41.6653C86.2487 41.0792 85.4538 40.75 84.625 40.75C83.7962 40.75 83.0013 41.0792 82.4153 41.6653C81.8292 42.2513 81.5 43.0462 81.5 43.875V81.375C81.5 82.2038 81.1708 82.9987 80.5847 83.5847C79.9987 84.1708 79.2038 84.5 78.375 84.5H9.625C8.7962 84.5 8.00134 84.1708 7.41529 83.5847C6.82924 82.9987 6.5 82.2038 6.5 81.375V12.625C6.5 11.7962 6.82924 11.0013 7.41529 10.4153C8.00134 9.82924 8.7962 9.5 9.625 9.5H50.25C51.0788 9.5 51.8737 9.17076 52.4597 8.58471C53.0458 7.99866 53.375 7.2038 53.375 6.375C53.375 5.5462 53.0458 4.75134 52.4597 4.16529C51.8737 3.57924 51.0788 3.25 50.25 3.25H9.625C7.1386 3.25 4.75403 4.23772 2.99587 5.99587C1.23772 7.75403 0.25 10.1386 0.25 12.625V81.375Z" fill="#2A2A2A"/>
</svg>
